<?xml version="1.0" encoding="UTF-8"?><svg xmlns="http://www.w3.org/2000/svg" viewBox="0 0 600.1 736.1"><defs><style>.d{stroke-width:15px;}.d,.e,.f{fill:none;stroke:#fff;stroke-miterlimit:10;}.e{stroke-width:10px;}.f{stroke-width:11px;}</style></defs><g id="a"/><g id="b"><g id="c"><g><path class="d" d="M105.12,101.4c6.86-1.97,112.92-31.07,170.38,32.98,.09,.1,.05,.26-.07,.3-5.17,1.92-87.73,30.97-170.37-32.95-.12-.09-.09-.29,.06-.33Z"/><path class="d" d="M275.5,134.38l-28.96,288.63c-.92,7.54-2.53,14.8-5.24,21.8-9.73,25.14-38.05,76.12-107.74,75.78-10.19-.05-20.27-1.94-29.76-5.66-22.91-8.99-62.5-32.51-68.46-88.83-1.55-14.65-.4-29.46,2.99-43.8L105.06,101.73"/><line class="d" x1="120.55" y1="519.64" x2="86.72" y2="713.5"/><line class="d" x1="1.33" y1="698.05" x2="171.35" y2="728.72"/></g><g><path class="d" d="M494.98,41.8c-6.86-1.97-112.92-31.07-170.38,32.98-.09,.1-.05,.26,.07,.3,5.17,1.92,87.73,30.97,170.37-32.95,.12-.09,.09-.29-.06-.33Z"/><path class="d" d="M324.6,74.78l28.96,288.63c.92,7.54,2.53,14.8,5.24,21.8,9.73,25.14,38.05,76.12,107.74,75.78,10.19-.05,20.27-1.94,29.76-5.66,22.91-8.99,62.5-32.51,68.46-88.83,1.55-14.65,.4-29.46-2.99-43.8L495.04,42.13"/><line class="d" x1="479.55" y1="460.04" x2="513.37" y2="653.9"/><line class="d" x1="598.77" y1="638.45" x2="428.75" y2="669.12"/></g><ellipse class="f" cx="279.75" cy="27.5" rx=".22" ry="22.51" transform="translate(.52 59.83) rotate(-12.22)"/><ellipse class="e" cx="250.73" cy="45.42" rx="1.12" ry="30.09" transform="translate(28.09 169.36) rotate(-39.37)"/></g></g></svg>